<?xml version="1.0" encoding="UTF-8"?>
<svg width="16px" height="16px" viewBox="0 0 16 16" version="1.1" xmlns="http://www.w3.org/2000/svg" xmlns:xlink="http://www.w3.org/1999/xlink">
    <!-- Generator: Sketch 64 (93537) - https://sketch.com -->
    <title>安全解决方案16px</title>
    <desc>Created with Sketch.</desc>
    <g id="安全解决方案16px" stroke="none" stroke-width="1" fill="none" fill-rule="evenodd">
        <rect id="Rectangle-Copy-9" fill="#000000" opacity="0" x="0" y="0" width="16" height="16"></rect>
        <path d="M13.0001082,3.06951141 C13.3395922,3.06951141 13.6734317,3.04570976 14,2.99970844 L14,7.31659734 C14,9.58963445 12.8621883,11.716558 10.9587447,13.0020221 L8.00025043,15 L5.0417562,13.0020221 C3.13831258,11.716558 2.00058755,9.58963445 2.00053257,7.31659734 L2,2.99963787 C2.32672781,3.04568542 2.66073506,3.06951141 3.00039267,3.06951141 C4.95920154,3.06951141 6.73008852,2.27709699 8.00059372,1 C9.27041235,2.27709699 11.0412993,3.06951141 13.0001082,3.06951141 Z" id="Path-Copy" stroke="#00A4FF" stroke-width="2"></path>
        <rect id="Rectangle-Copy-3" fill="#00A4FF" transform="translate(8.000000, 7.500000) rotate(-90.000000) translate(-8.000000, -7.500000) " x="4.5" y="6.5" width="7" height="2"></rect>
        <rect id="Rectangle-Copy-2" fill="#00A4FF" x="5" y="6" width="6" height="2"></rect>
    </g>
</svg>