<?xml version="1.0" encoding="utf-8"?>
<!-- Generator: Adobe Illustrator 23.0.1, SVG Export Plug-In . SVG Version: 6.00 Build 0)  -->
<!DOCTYPE svg PUBLIC "-//W3C//DTD SVG 1.1//EN" "http://www.w3.org/Graphics/SVG/1.1/DTD/svg11.dtd" [
	<!ENTITY ns_extend "http://ns.adobe.com/Extensibility/1.0/">
	<!ENTITY ns_ai "http://ns.adobe.com/AdobeIllustrator/10.0/">
	<!ENTITY ns_graphs "http://ns.adobe.com/Graphs/1.0/">
	<!ENTITY ns_vars "http://ns.adobe.com/Variables/1.0/">
	<!ENTITY ns_imrep "http://ns.adobe.com/ImageReplacement/1.0/">
	<!ENTITY ns_sfw "http://ns.adobe.com/SaveForWeb/1.0/">
	<!ENTITY ns_custom "http://ns.adobe.com/GenericCustomNamespace/1.0/">
	<!ENTITY ns_adobe_xpath "http://ns.adobe.com/XPath/1.0/">
]>
<svg version="1.1" xmlns:x="&ns_extend;" xmlns:i="&ns_ai;" xmlns:graph="&ns_graphs;"
	 xmlns="http://www.w3.org/2000/svg" xmlns:xlink="http://www.w3.org/1999/xlink" x="0px" y="0px" width="16px" height="16px"
	 viewBox="0 0 16 16" style="enable-background:new 0 0 16 16;" xml:space="preserve">
<style type="text/css">
	.st0{display:none;}
	.st1{display:inline;}
	.st2{fill:none;}
	.st3{fill-rule:evenodd;clip-rule:evenodd;fill:#00A4FF;}
	.st4{fill:#00A4FF;}
</style>
<metadata>
	<sfw  xmlns="&ns_sfw;">
		<slices></slices>
		<sliceSourceBounds  bottomLeftOrigin="true" height="16" width="16" x="0" y="0"></sliceSourceBounds>
	</sfw>
</metadata>
<g id="图层_1" class="st0">
	<g id="计算" class="st1">
		<g id="Group-7-Copy">
			<rect id="Rectangle" class="st2" width="16" height="16"/>
			<path id="Fill-1" class="st3" d="M3.3,5L8,2.3L12.7,5L8,7.7L3.3,5z M8,0L1,4v8l3,1.7c0-0.7,0.3-1.4,0.6-1.9l-1.7-1V7.1L8,10
				l5-2.9v3.7l-3.4,2C9.2,12.3,8.6,12,8,12c-1.1,0-2,0.9-2,2s0.9,2,2,2c0.7,0,1.4-0.4,1.7-1l5.3-3V4L8,0z"/>
		</g>
	</g>
</g>
<g id="图层_2">
	<g>
		<path class="st4" d="M14,4v8H2V4H14 M16,2H0v12h16V2L16,2z"/>
	</g>
	<polygon id="Rectangle_1_" class="st4" points="3.5,5 7.5,7 7.5,9 3.5,7 	"/>
	<polygon id="Rectangle-Copy" class="st4" points="3.5,11 7.5,9 7.5,7 3.5,9 	"/>
	<rect x="9" y="7" class="st4" width="3" height="2"/>
</g>
<g id="图层_3">
</g>
</svg>
