<?xml version="1.0" encoding="UTF-8"?>
<svg width="16px" height="16px" viewBox="0 0 16 16" version="1.1" xmlns="http://www.w3.org/2000/svg" xmlns:xlink="http://www.w3.org/1999/xlink">
    <!-- Generator: Sketch 64 (93537) - https://sketch.com -->
    <title>政务16px</title>
    <desc>Created with Sketch.</desc>
    <g id="政务16px" stroke="none" stroke-width="1" fill="none" fill-rule="evenodd">
        <rect id="Rectangle-Copy" fill="#000000" opacity="0" x="0" y="0" width="16" height="16"></rect>
        <path d="M16,10 L15.2727273,16 L0.727272727,16 L0,10 L16,10 Z M13,12 L3,12 L3,14 L13,14 L13,12 Z" id="Combined-Shape" fill="#00A4FF"></path>
        <path d="M4,11 C5.4977388,10.8720184 6.24660821,10.2037511 6.24660821,8.99519813 C6.24660821,7.18236861 4,6.07830323 4,3.94077183 C4,1.80324042 6.04181087,1 7.78459013,1 C9.52736939,1 11.3977137,1.77672184 11.3977137,3.94077183 C11.3977137,6.10482181 9.42557502,7.14930952 9.42557502,8.99519813 C9.42557502,10.2257905 10.2837167,10.8940578 12,11 L4,11 Z" id="Path-11-Copy" stroke="#00A4FF" stroke-width="2"></path>
    </g>
</svg>