<?xml version="1.0" encoding="UTF-8"?>
<svg width="16px" height="16px" viewBox="0 0 16 16" version="1.1" xmlns="http://www.w3.org/2000/svg" xmlns:xlink="http://www.w3.org/1999/xlink">
    <!-- Generator: Sketch 64 (93537) - https://sketch.com -->
    <title>微信支付16px</title>
    <desc>Created with Sketch.</desc>
    <g id="微信支付16px" stroke="none" stroke-width="1" fill="none" fill-rule="evenodd">
        <rect id="Rectangle-Copy" fill="#000000" opacity="0" x="0" y="0" width="16" height="16"></rect>
        <path d="M8,14 C11.8659932,14 15,11.0898509 15,7.5 C15,3.91014913 11.8659932,1 8,1 C4.13400675,1 1,3.91014913 1,7.5 C1,8.99183037 1.54123516,10.3662779 2.45131797,11.4632686 C2.58398786,11.6231855 2.58398786,12.0700875 2.45131797,12.8039746 C3.25008459,12.6707565 3.75051956,12.6707565 3.95262288,12.8039746 C5.095326,13.5571969 6.49197412,14 8,14 Z" id="Oval" stroke="#00A4FF" stroke-width="2"></path>
        <path d="M13.2531491,4 L13.9439494,5.0797583 L8.3569772,9.24470447 C7.72595802,9.62660501 7.17569169,9.62660501 6.81930131,9.12880261 L5.08898027,6.82083275 C4.96811909,6.65962338 4.97061064,6.43733335 5.09505487,6.2788735 C5.21793514,6.12240509 5.43377711,6.07368943 5.61195146,6.16220964 L7.26962227,6.98577024 C7.57188405,7.13593931 7.92950192,7.12350688 8.22060545,6.95270971 L13.2531491,4 L13.2531491,4 Z" id="Path-12" fill="#00A4FF" fill-rule="nonzero"></path>
    </g>
</svg>