<?xml version="1.0" encoding="UTF-8"?>
<svg width="16px" height="16px" viewBox="0 0 16 16" version="1.1" xmlns="http://www.w3.org/2000/svg" xmlns:xlink="http://www.w3.org/1999/xlink">
    <!-- Generator: Sketch 59 (86127) - https://sketch.com -->
    <title>人脸特效-16px</title>
    <desc>Created with Sketch.</desc>
    <g id="人脸特效-16px" stroke="none" stroke-width="1" fill="none" fill-rule="evenodd">
        <path d="M2,16 C2,14.3431458 3.34314575,13 5,13 L11,13 C12.6568542,13 14,14.3431458 14,16 L14,16 L14,16" id="路径备份-4" stroke="#00A4FF" stroke-width="2"></path>
        <path d="M8,2 C5.790861,2 4,3.790861 4,6 C4,8.209139 5.790861,10 8,10 C10.209139,10 12,8.209139 12,6" id="路径" stroke="#00A4FF" stroke-width="2"></path>
        <polygon id="星形备份-5" fill="#00A4FF" transform="translate(10.000000, 4.000000) rotate(-45.000000) translate(-10.000000, -4.000000) " points="10 5.5 7.87867966 6.12132034 8.5 4 7.87867966 1.87867966 10 2.5 12.1213203 1.87867966 11.5 4 12.1213203 6.12132034"></polygon>
    </g>
</svg>